<svg xmlns="http://www.w3.org/2000/svg" width="220" height="26" viewBox="0 0 220 26" fill="none">
  <path d="M45.9872 1.15186C44.1272 2.12524 42.4499 4.37482 40.9501 7.91143L33.2411 26H27.0374L23.0485 13.9247L17.4577 26H11.3884L2.6795 1.15186H0.674316V0.248779H16.1137V1.15186H14.2806L20.1402 17.7425L22.5271 12.5945L18.7264 1.15186H16.8932V0.248779H32.4509V1.15186H30.3489L35.6549 17.1044C38.3374 10.7072 39.7727 7.23547 39.9609 6.6893C40.1437 6.14312 40.2351 5.47798 40.2351 4.68306C40.2351 3.59612 40.0093 2.75793 39.5577 2.17931C39.1061 1.59529 38.2353 1.2546 36.9504 1.15186V0.248779H45.9765V1.15186H45.9872Z" fill="#DC2715"/>
  <path d="M53.6425 9.60925C56.8895 9.60925 59.4645 10.3771 61.3676 11.9183C63.2706 13.4595 64.2221 15.5144 64.2221 18.0939C64.2221 20.4246 63.2652 22.2794 61.3461 23.6692C59.4269 25.0535 56.8465 25.7457 53.5995 25.7457C50.3525 25.7457 47.8796 25.0265 45.9551 23.5934C44.0305 22.1604 43.0682 20.2731 43.0682 17.9479C43.0682 15.4495 44.0305 13.4325 45.9551 11.9021C47.8796 10.3717 50.4385 9.60925 53.6371 9.60925H53.6425ZM55.352 22.6417V12.6429C55.352 11.7561 55.2284 11.145 54.9865 10.8043C54.7392 10.4637 54.293 10.296 53.6425 10.296C52.992 10.296 52.5566 10.4853 52.2985 10.8584C52.0405 11.237 51.9115 11.8805 51.9115 12.789V22.6417C51.9115 23.5069 52.0298 24.1126 52.2717 24.4641C52.5082 24.8156 52.9168 24.9886 53.492 24.9886C54.1801 24.9886 54.6585 24.8102 54.9327 24.4533C55.2069 24.0964 55.3466 23.4907 55.3466 22.6417H55.352Z" fill="#6D6C6F"/>
  <path d="M76.0059 14.0813C77.5864 11.556 79.2045 10.2906 80.8549 10.2906C81.7742 10.2906 82.5053 10.5718 83.0482 11.1396C83.5912 11.7074 83.8654 12.4699 83.8654 13.4324C83.8654 14.4437 83.5428 15.2927 82.9031 15.974C82.258 16.6608 81.4677 17.0015 80.5216 17.0015C79.6399 17.0015 78.9088 16.7203 78.3336 16.1579C77.7584 15.5955 77.4681 14.8925 77.4681 14.0435C77.4681 13.7461 77.5058 13.519 77.581 13.3621L77.5058 13.2864C77.0649 13.7082 76.6886 14.2219 76.3876 14.8384C76.0865 15.4549 75.9306 15.8875 75.9306 16.1308V24.9832H78.3766V25.7402H65.2381V24.9832H67.5712V11.1234H65.2381V10.3825H71.3773C73.2158 10.3825 74.7318 10.2149 75.936 9.88501V14.0813H76.0113H76.0059Z" fill="#6D6C6F"/>
  <path d="M97.9069 0.497559H84.8813V1.25463H87.1768V24.5238H84.8813V25.2808H91.7731C93.316 25.2808 94.5739 25.4322 95.5416 25.7405V1.25463H97.9123V0.497559H97.9069Z" fill="#6D6C6F"/>
  <path d="M121.539 25.2483H114.578C113.18 25.2483 111.938 25.3998 110.847 25.708V23.9505C109.325 25.1456 107.799 25.7458 106.256 25.7458C104.073 25.7458 102.305 24.978 100.934 23.4476C99.5682 21.9118 98.8855 19.9651 98.8855 17.5965C98.8855 15.228 99.5306 13.3245 100.815 11.8374C102.1 10.3502 103.767 9.6094 105.815 9.6094C107.299 9.6094 108.976 10.015 110.852 10.8315V1.22213H108.374V0.459651H114.475C116.19 0.459651 117.771 0.308236 119.217 0V24.4913H121.55V25.2483H121.539ZM110.847 22.9393V11.6643C110.04 11.3074 109.487 11.129 109.191 11.129C108.723 11.129 108.342 11.3128 108.035 11.6751C107.729 12.0374 107.578 12.5295 107.578 13.146V22.3336C107.578 22.8636 107.691 23.28 107.917 23.5828C108.143 23.8856 108.422 24.037 108.756 24.037C109.342 24.037 110.04 23.6747 110.852 22.9447L110.847 22.9393Z" fill="#6D6C6F"/>
  <path d="M147.225 25.7457H122.878V24.8751H125.818V1.82766H122.878V0.957031H139.747V1.82766H136.548V24.8751C139.156 24.6047 141.413 23.6746 143.311 22.0847C145.209 20.4949 146.225 18.6238 146.359 16.4662H147.225V25.7457Z" fill="#6D6C6F"/>
  <path d="M170.599 22.2902C169.486 24.5939 167.443 25.7457 164.481 25.7457C162.863 25.7457 161.503 25.2049 160.401 24.118C158.686 25.2049 156.971 25.7457 155.256 25.7457C153.542 25.7457 152.015 25.3239 150.854 24.4803C149.698 23.6367 149.117 22.5822 149.117 21.3114C149.117 19.8676 149.725 18.7374 150.934 17.9208C152.149 17.1043 153.81 16.6933 155.934 16.6933C157.563 16.6933 158.987 16.8988 160.213 17.3043V13.6271C160.213 12.6267 160.089 11.9508 159.847 11.583C159.6 11.2207 159.229 10.9449 158.729 10.7611C158.229 10.5772 157.67 10.4853 157.057 10.4853C156.283 10.4853 155.708 10.5772 155.332 10.7611C156.654 11.1558 157.315 12.0373 157.315 13.4054C157.315 14.3193 157.047 15.0439 156.509 15.5847C155.971 16.1255 155.251 16.3959 154.359 16.3959C153.418 16.3959 152.654 16.1201 152.069 15.5631C151.483 15.0061 151.198 14.2869 151.198 13.4C151.198 12.1941 151.784 11.2586 152.95 10.5989C154.122 9.93912 155.778 9.60925 157.923 9.60925C160.202 9.60925 162.068 9.77148 163.524 10.0905C164.981 10.4096 166.056 10.8152 166.739 11.3018C167.427 11.7885 167.895 12.3023 168.153 12.8376C168.411 13.373 168.54 14.2004 168.54 15.3251V22.2956C168.54 22.6796 168.556 22.9283 168.588 23.0527C168.621 23.1771 168.701 23.2365 168.836 23.2365C169.067 23.2365 169.438 22.8093 169.938 21.9603L170.599 22.2956V22.2902ZM160.218 23.4366V18.1317C159.433 17.8235 158.821 17.6721 158.38 17.6721C157.891 17.6721 157.541 17.7964 157.331 18.0398C157.122 18.2885 157.02 18.6941 157.02 19.2619V22.6796C157.02 23.7124 157.391 24.2315 158.138 24.2315C158.579 24.2315 159.272 23.9666 160.213 23.4366H160.218Z" fill="#6D6C6F"/>
  <path d="M195.495 25.7458H183.549V24.9888H184.834V14.1572C184.834 12.8756 184.458 12.2375 183.716 12.2375C183.114 12.2375 182.426 12.589 181.641 13.292V24.9942H182.926V25.7512H170.943V24.9942H173.276V11.1343H170.943V10.3935H177.942C179.093 10.3935 180.324 10.2259 181.636 9.896V12.3889C183.695 10.8748 185.764 10.1177 187.845 10.1177C189.291 10.1177 190.543 10.48 191.602 11.2101C192.661 11.9347 193.194 13.2109 193.194 15.0387V24.9996H195.489V25.7566L195.495 25.7458Z" fill="#6D6C6F"/>
  <path d="M219.196 25.2483H212.235C210.837 25.2483 209.595 25.3998 208.504 25.708V23.9505C206.983 25.1456 205.456 25.7458 203.913 25.7458C201.73 25.7458 199.962 24.978 198.596 23.4476C197.231 21.9118 196.548 19.9651 196.548 17.5965C196.548 15.228 197.193 13.3245 198.478 11.8374C199.763 10.3502 201.429 9.6094 203.477 9.6094C204.961 9.6094 206.638 10.015 208.515 10.8315V1.22213H206.036V0.459651H212.138C213.853 0.459651 215.433 0.308236 216.879 0V24.4913H219.213V25.2483H219.196ZM208.504 22.9393V11.6643C207.698 11.3074 207.144 11.129 206.848 11.129C206.38 11.129 205.999 11.3128 205.692 11.6751C205.386 12.0374 205.235 12.5295 205.235 13.146V22.3336C205.235 22.8636 205.348 23.28 205.574 23.5828C205.8 23.8856 206.079 24.037 206.407 24.037C206.993 24.037 207.692 23.6747 208.504 22.9447V22.9393Z" fill="#6D6C6F"/>
</svg>